<mxfile host="app.diagrams.net" agent="Mozilla/5.0 (Windows NT 10.0; Win64; x64) AppleWebKit/537.36 (KHTML, like Gecko) Chrome/131.0.0.0 Safari/537.36" version="25.0.3">
  <diagram name="1 oldal" id="pGAsfrsrWcSzpsH08qXX">
    <mxGraphModel dx="2084" dy="669" grid="1" gridSize="10" guides="1" tooltips="1" connect="1" arrows="1" fold="1" page="1" pageScale="1" pageWidth="827" pageHeight="1169" math="0" shadow="0">
      <root>
        <mxCell id="0" />
        <mxCell id="1" parent="0" />
        <mxCell id="IqRQxUyxFtVxUt3e5DLS-1" value="Felhasználó" style="shape=umlActor;verticalLabelPosition=bottom;verticalAlign=top;html=1;outlineConnect=0;" vertex="1" parent="1">
          <mxGeometry x="-30" y="210" width="30" height="60" as="geometry" />
        </mxCell>
        <mxCell id="IqRQxUyxFtVxUt3e5DLS-2" value="registration" style="ellipse;whiteSpace=wrap;html=1;" vertex="1" parent="1">
          <mxGeometry x="130" y="90" width="90" height="50" as="geometry" />
        </mxCell>
        <mxCell id="IqRQxUyxFtVxUt3e5DLS-3" value="login" style="ellipse;whiteSpace=wrap;html=1;" vertex="1" parent="1">
          <mxGeometry x="130" y="170" width="90" height="50" as="geometry" />
        </mxCell>
        <mxCell id="IqRQxUyxFtVxUt3e5DLS-4" value="select books /&lt;br&gt;add to card" style="ellipse;whiteSpace=wrap;html=1;" vertex="1" parent="1">
          <mxGeometry x="130" y="250" width="90" height="50" as="geometry" />
        </mxCell>
        <mxCell id="IqRQxUyxFtVxUt3e5DLS-6" style="edgeStyle=orthogonalEdgeStyle;rounded=0;orthogonalLoop=1;jettySize=auto;html=1;exitX=0.5;exitY=0;exitDx=0;exitDy=0;" edge="1" parent="1">
          <mxGeometry relative="1" as="geometry">
            <mxPoint x="175" y="320" as="targetPoint" />
            <mxPoint x="175" y="320" as="sourcePoint" />
          </mxGeometry>
        </mxCell>
        <mxCell id="IqRQxUyxFtVxUt3e5DLS-7" value="reserv books" style="ellipse;whiteSpace=wrap;html=1;" vertex="1" parent="1">
          <mxGeometry x="130" y="400" width="90" height="50" as="geometry" />
        </mxCell>
        <mxCell id="IqRQxUyxFtVxUt3e5DLS-8" value="Book_shop (admin)" style="shape=umlActor;verticalLabelPosition=bottom;verticalAlign=top;html=1;outlineConnect=0;" vertex="1" parent="1">
          <mxGeometry x="650" y="150" width="30" height="60" as="geometry" />
        </mxCell>
        <mxCell id="IqRQxUyxFtVxUt3e5DLS-16" value="verify password" style="ellipse;whiteSpace=wrap;html=1;" vertex="1" parent="1">
          <mxGeometry x="350" y="90" width="90" height="50" as="geometry" />
        </mxCell>
        <mxCell id="IqRQxUyxFtVxUt3e5DLS-17" value="" style="endArrow=classic;html=1;rounded=0;entryX=0;entryY=0.5;entryDx=0;entryDy=0;dashed=1;dashPattern=12 12;" edge="1" parent="1" target="IqRQxUyxFtVxUt3e5DLS-16">
          <mxGeometry relative="1" as="geometry">
            <mxPoint x="220" y="190" as="sourcePoint" />
            <mxPoint x="320" y="190" as="targetPoint" />
          </mxGeometry>
        </mxCell>
        <mxCell id="IqRQxUyxFtVxUt3e5DLS-20" value="" style="endArrow=classic;html=1;rounded=0;" edge="1" parent="1">
          <mxGeometry width="50" height="50" relative="1" as="geometry">
            <mxPoint x="50" y="200" as="sourcePoint" />
            <mxPoint x="120" y="130" as="targetPoint" />
          </mxGeometry>
        </mxCell>
        <mxCell id="IqRQxUyxFtVxUt3e5DLS-21" value="" style="endArrow=classic;html=1;rounded=0;entryX=0;entryY=0.5;entryDx=0;entryDy=0;" edge="1" parent="1" target="IqRQxUyxFtVxUt3e5DLS-3">
          <mxGeometry width="50" height="50" relative="1" as="geometry">
            <mxPoint x="60" y="210" as="sourcePoint" />
            <mxPoint x="120" y="170" as="targetPoint" />
          </mxGeometry>
        </mxCell>
        <mxCell id="IqRQxUyxFtVxUt3e5DLS-36" value="" style="endArrow=classic;html=1;rounded=0;" edge="1" parent="1" source="IqRQxUyxFtVxUt3e5DLS-1">
          <mxGeometry width="50" height="50" relative="1" as="geometry">
            <mxPoint x="40" y="320" as="sourcePoint" />
            <mxPoint x="120" y="270" as="targetPoint" />
          </mxGeometry>
        </mxCell>
        <mxCell id="IqRQxUyxFtVxUt3e5DLS-49" value="" style="endArrow=classic;html=1;rounded=0;" edge="1" parent="1" target="IqRQxUyxFtVxUt3e5DLS-7">
          <mxGeometry width="50" height="50" relative="1" as="geometry">
            <mxPoint x="50" y="290" as="sourcePoint" />
            <mxPoint x="120" y="390" as="targetPoint" />
          </mxGeometry>
        </mxCell>
        <mxCell id="IqRQxUyxFtVxUt3e5DLS-51" value="login error" style="ellipse;whiteSpace=wrap;html=1;" vertex="1" parent="1">
          <mxGeometry x="340" y="170" width="90" height="50" as="geometry" />
        </mxCell>
        <mxCell id="IqRQxUyxFtVxUt3e5DLS-52" value="" style="endArrow=classic;html=1;rounded=0;dashed=1;dashPattern=12 12;exitX=0;exitY=0.3;exitDx=0;exitDy=0;exitPerimeter=0;entryX=1;entryY=0.5;entryDx=0;entryDy=0;" edge="1" parent="1" source="IqRQxUyxFtVxUt3e5DLS-51" target="IqRQxUyxFtVxUt3e5DLS-3">
          <mxGeometry relative="1" as="geometry">
            <mxPoint x="260" y="240" as="sourcePoint" />
            <mxPoint x="240" y="210" as="targetPoint" />
          </mxGeometry>
        </mxCell>
        <mxCell id="IqRQxUyxFtVxUt3e5DLS-66" value="extend" style="edgeLabel;html=1;align=center;verticalAlign=middle;resizable=0;points=[];" vertex="1" connectable="0" parent="IqRQxUyxFtVxUt3e5DLS-52">
          <mxGeometry x="-0.2152" y="1" relative="1" as="geometry">
            <mxPoint as="offset" />
          </mxGeometry>
        </mxCell>
        <mxCell id="IqRQxUyxFtVxUt3e5DLS-53" value="check stock availability" style="ellipse;whiteSpace=wrap;html=1;" vertex="1" parent="1">
          <mxGeometry x="340" y="240" width="90" height="50" as="geometry" />
        </mxCell>
        <mxCell id="IqRQxUyxFtVxUt3e5DLS-54" value="" style="endArrow=classic;html=1;rounded=0;dashed=1;dashPattern=12 12;" edge="1" parent="1">
          <mxGeometry relative="1" as="geometry">
            <mxPoint x="230" y="260" as="sourcePoint" />
            <mxPoint x="330" y="262.5" as="targetPoint" />
          </mxGeometry>
        </mxCell>
        <mxCell id="IqRQxUyxFtVxUt3e5DLS-55" value="show stock error" style="ellipse;whiteSpace=wrap;html=1;" vertex="1" parent="1">
          <mxGeometry x="340" y="320" width="90" height="50" as="geometry" />
        </mxCell>
        <mxCell id="IqRQxUyxFtVxUt3e5DLS-56" value="" style="endArrow=classic;html=1;rounded=0;dashed=1;dashPattern=12 12;exitX=0;exitY=0.3;exitDx=0;exitDy=0;exitPerimeter=0;" edge="1" parent="1">
          <mxGeometry relative="1" as="geometry">
            <mxPoint x="340" y="340" as="sourcePoint" />
            <mxPoint x="230" y="280" as="targetPoint" />
          </mxGeometry>
        </mxCell>
        <mxCell id="IqRQxUyxFtVxUt3e5DLS-68" value="extend" style="edgeLabel;html=1;align=center;verticalAlign=middle;resizable=0;points=[];" vertex="1" connectable="0" parent="IqRQxUyxFtVxUt3e5DLS-56">
          <mxGeometry x="-0.1592" y="4" relative="1" as="geometry">
            <mxPoint as="offset" />
          </mxGeometry>
        </mxCell>
        <mxCell id="IqRQxUyxFtVxUt3e5DLS-57" value="verify reserving" style="ellipse;whiteSpace=wrap;html=1;" vertex="1" parent="1">
          <mxGeometry x="340" y="410" width="90" height="50" as="geometry" />
        </mxCell>
        <mxCell id="IqRQxUyxFtVxUt3e5DLS-59" value="" style="endArrow=classic;html=1;rounded=0;dashed=1;dashPattern=12 12;" edge="1" parent="1">
          <mxGeometry relative="1" as="geometry">
            <mxPoint x="230" y="423.75" as="sourcePoint" />
            <mxPoint x="330" y="426.25" as="targetPoint" />
          </mxGeometry>
        </mxCell>
        <mxCell id="IqRQxUyxFtVxUt3e5DLS-69" value="include" style="edgeLabel;html=1;align=center;verticalAlign=middle;resizable=0;points=[];" vertex="1" connectable="0" parent="IqRQxUyxFtVxUt3e5DLS-59">
          <mxGeometry x="0.1194" y="1" relative="1" as="geometry">
            <mxPoint as="offset" />
          </mxGeometry>
        </mxCell>
        <mxCell id="IqRQxUyxFtVxUt3e5DLS-60" value="make payment" style="ellipse;whiteSpace=wrap;html=1;" vertex="1" parent="1">
          <mxGeometry x="120" y="500" width="90" height="50" as="geometry" />
        </mxCell>
        <mxCell id="IqRQxUyxFtVxUt3e5DLS-61" value="add new books" style="ellipse;whiteSpace=wrap;html=1;" vertex="1" parent="1">
          <mxGeometry x="320" y="585" width="100" height="45" as="geometry" />
        </mxCell>
        <mxCell id="IqRQxUyxFtVxUt3e5DLS-63" value="" style="endArrow=classic;html=1;rounded=0;" edge="1" parent="1">
          <mxGeometry width="50" height="50" relative="1" as="geometry">
            <mxPoint x="640" y="250" as="sourcePoint" />
            <mxPoint x="440" y="590" as="targetPoint" />
          </mxGeometry>
        </mxCell>
        <mxCell id="IqRQxUyxFtVxUt3e5DLS-65" value="include" style="text;html=1;align=center;verticalAlign=middle;resizable=0;points=[];autosize=1;strokeColor=none;fillColor=none;" vertex="1" parent="1">
          <mxGeometry x="260" y="128" width="60" height="30" as="geometry" />
        </mxCell>
        <mxCell id="IqRQxUyxFtVxUt3e5DLS-67" value="include" style="text;html=1;align=center;verticalAlign=middle;resizable=0;points=[];autosize=1;strokeColor=none;fillColor=none;" vertex="1" parent="1">
          <mxGeometry x="250" y="248" width="60" height="30" as="geometry" />
        </mxCell>
        <mxCell id="IqRQxUyxFtVxUt3e5DLS-70" value="" style="endArrow=classic;html=1;rounded=0;" edge="1" parent="1">
          <mxGeometry width="50" height="50" relative="1" as="geometry">
            <mxPoint x="40" y="310" as="sourcePoint" />
            <mxPoint x="117" y="512" as="targetPoint" />
          </mxGeometry>
        </mxCell>
        <mxCell id="IqRQxUyxFtVxUt3e5DLS-71" value="verify buying&lt;br&gt;(depending the bank information&lt;span style=&quot;background-color: initial;&quot;&gt;)&lt;/span&gt;" style="ellipse;whiteSpace=wrap;html=1;" vertex="1" parent="1">
          <mxGeometry x="305" y="500" width="110" height="50" as="geometry" />
        </mxCell>
        <mxCell id="IqRQxUyxFtVxUt3e5DLS-72" value="" style="endArrow=classic;html=1;rounded=0;" edge="1" parent="1">
          <mxGeometry width="50" height="50" relative="1" as="geometry">
            <mxPoint x="580" y="260" as="sourcePoint" />
            <mxPoint x="430" y="510" as="targetPoint" />
          </mxGeometry>
        </mxCell>
        <mxCell id="IqRQxUyxFtVxUt3e5DLS-73" value="editing books details" style="ellipse;whiteSpace=wrap;html=1;" vertex="1" parent="1">
          <mxGeometry x="320" y="660" width="100" height="50" as="geometry" />
        </mxCell>
        <mxCell id="IqRQxUyxFtVxUt3e5DLS-74" value="" style="endArrow=classic;html=1;rounded=0;" edge="1" parent="1">
          <mxGeometry width="50" height="50" relative="1" as="geometry">
            <mxPoint x="680" y="255" as="sourcePoint" />
            <mxPoint x="440" y="660" as="targetPoint" />
          </mxGeometry>
        </mxCell>
        <mxCell id="IqRQxUyxFtVxUt3e5DLS-75" value="browse books" style="ellipse;whiteSpace=wrap;html=1;" vertex="1" parent="1">
          <mxGeometry x="130" y="320" width="90" height="50" as="geometry" />
        </mxCell>
        <mxCell id="IqRQxUyxFtVxUt3e5DLS-76" value="" style="endArrow=classic;html=1;rounded=0;" edge="1" parent="1" target="IqRQxUyxFtVxUt3e5DLS-75">
          <mxGeometry width="50" height="50" relative="1" as="geometry">
            <mxPoint x="60" y="280" as="sourcePoint" />
            <mxPoint x="140" y="297" as="targetPoint" />
          </mxGeometry>
        </mxCell>
        <mxCell id="IqRQxUyxFtVxUt3e5DLS-77" value="manage book inventory" style="ellipse;whiteSpace=wrap;html=1;" vertex="1" parent="1">
          <mxGeometry x="320" y="740" width="100" height="50" as="geometry" />
        </mxCell>
        <mxCell id="IqRQxUyxFtVxUt3e5DLS-78" value="manage account" style="ellipse;whiteSpace=wrap;html=1;" vertex="1" parent="1">
          <mxGeometry x="120" y="580" width="90" height="50" as="geometry" />
        </mxCell>
        <mxCell id="IqRQxUyxFtVxUt3e5DLS-82" value="rate books" style="ellipse;whiteSpace=wrap;html=1;" vertex="1" parent="1">
          <mxGeometry x="120" y="660" width="90" height="50" as="geometry" />
        </mxCell>
        <mxCell id="IqRQxUyxFtVxUt3e5DLS-83" value="" style="endArrow=classic;html=1;rounded=0;" edge="1" parent="1">
          <mxGeometry width="50" height="50" relative="1" as="geometry">
            <mxPoint x="10" y="320" as="sourcePoint" />
            <mxPoint x="100" y="590" as="targetPoint" />
          </mxGeometry>
        </mxCell>
        <mxCell id="IqRQxUyxFtVxUt3e5DLS-84" value="" style="endArrow=classic;html=1;rounded=0;" edge="1" parent="1">
          <mxGeometry width="50" height="50" relative="1" as="geometry">
            <mxPoint x="-30" y="300" as="sourcePoint" />
            <mxPoint x="110" y="680" as="targetPoint" />
          </mxGeometry>
        </mxCell>
        <mxCell id="IqRQxUyxFtVxUt3e5DLS-85" value="" style="endArrow=classic;html=1;rounded=0;" edge="1" parent="1">
          <mxGeometry width="50" height="50" relative="1" as="geometry">
            <mxPoint x="730" y="260" as="sourcePoint" />
            <mxPoint x="430" y="750" as="targetPoint" />
          </mxGeometry>
        </mxCell>
        <mxCell id="IqRQxUyxFtVxUt3e5DLS-86" value="manage account" style="ellipse;whiteSpace=wrap;html=1;" vertex="1" parent="1">
          <mxGeometry x="120" y="740" width="90" height="50" as="geometry" />
        </mxCell>
        <mxCell id="IqRQxUyxFtVxUt3e5DLS-87" value="manage users" style="ellipse;whiteSpace=wrap;html=1;" vertex="1" parent="1">
          <mxGeometry x="325" y="820" width="90" height="50" as="geometry" />
        </mxCell>
        <mxCell id="IqRQxUyxFtVxUt3e5DLS-88" value="" style="endArrow=classic;html=1;rounded=0;" edge="1" parent="1">
          <mxGeometry width="50" height="50" relative="1" as="geometry">
            <mxPoint x="790" y="278" as="sourcePoint" />
            <mxPoint x="440" y="820" as="targetPoint" />
          </mxGeometry>
        </mxCell>
        <mxCell id="IqRQxUyxFtVxUt3e5DLS-89" value="" style="endArrow=classic;html=1;rounded=0;" edge="1" parent="1">
          <mxGeometry width="50" height="50" relative="1" as="geometry">
            <mxPoint x="-60" y="300" as="sourcePoint" />
            <mxPoint x="90" y="740" as="targetPoint" />
          </mxGeometry>
        </mxCell>
      </root>
    </mxGraphModel>
  </diagram>
</mxfile>
